<svg width="379" height="433" viewBox="0 0 379 433" fill="none" xmlns="http://www.w3.org/2000/svg">
<g clip-path="url(#clip0_105_2299)">
<path d="M336.717 299.64L336.71 299.818L349.052 433H285.541L272.262 336.052L265.403 433H193.631L208.962 317.728L214.986 283.527V283.52L215.889 278.373H334.947L335.102 280.236L336.717 299.64Z" fill="#2F2E41"/>
<path d="M165.127 354.081C172.003 355.332 179.174 347.602 181.142 336.816C182.004 332.095 181.726 327.571 180.564 323.871L181.619 317.654L199.313 234.013C199.313 234.013 231.897 168.957 231.896 157.664C231.895 146.37 222.47 140.831 222.47 140.831L209.717 140.95L169.723 238.447L162.52 310.493L161.355 320.378C158.96 323.431 157.102 327.567 156.24 332.288C154.271 343.074 158.25 352.831 165.127 354.081Z" fill="#FFB6B6"/>
<path d="M294.858 100.53L283.005 73.1699L244.48 79.8252L241.886 112.015L294.858 100.53Z" fill="#FFB6B6"/>
<path opacity="0.1" d="M294.858 100.53L283.005 73.1699L244.48 79.8252L241.886 112.015L294.858 100.53Z" fill="black"/>
<path d="M378.576 157.469C378.576 157.469 351.164 106.446 345.978 101.27C343.67 98.9653 340.04 98.9332 336.722 99.6048L298.563 86.4802L285.629 79.2266L284.776 93.0266L242.313 100.634C242.549 92.218 243.739 89.017 243.739 89.017L228.18 107.185L197.805 121.975L197.821 122.108C195.592 122.885 193.479 124.214 191.878 126.412C185.951 134.546 169.652 233.635 169.652 233.635L204.473 241.03L209.212 211.348L212.622 238.072L215.215 287.986C215.215 287.986 262.631 328.657 285.598 313.868C308.564 299.078 336.717 299.818 336.717 299.818L337.42 276.681C337.92 275.884 338.199 275.415 338.199 275.415L337.458 193.345V171.507C343.102 179.356 349.913 186.105 357.832 189.267C383.762 199.619 378.576 157.469 378.576 157.469Z" fill="#E6E6E6"/>
<path d="M259.715 84.639C279.289 84.639 295.157 68.801 295.157 49.2639C295.157 29.7267 279.289 13.8887 259.715 13.8887C240.141 13.8887 224.273 29.7267 224.273 49.2639C224.273 68.801 240.141 84.639 259.715 84.639Z" fill="#FFB6B6"/>
<path d="M285.141 59.2608C285.141 59.2608 288.223 48.4945 295.157 49.2635C302.092 50.0325 303.633 43.8803 302.092 40.8042C300.551 37.7281 297.469 22.3476 297.469 22.3476C297.469 22.3476 299.01 11.5813 289.764 10.0432C280.518 8.50516 277.436 6.9671 275.895 3.891C274.354 0.814893 251.24 -2.26121 243.535 2.35295C235.831 6.9671 229.667 15.82 224.273 18.3148C218.88 20.8096 214.257 25.4237 217.339 33.114C220.421 40.8042 224.891 55.8447 224.891 55.8447C224.891 55.8447 232.749 53.1086 234.29 57.7228C235.831 62.3369 229.667 56.1847 237.372 43.8803C245.076 31.5759 245.076 19.2715 257.404 23.8857C269.732 28.4998 283.6 26.9618 282.059 36.1901C280.518 45.4184 285.141 59.2608 285.141 59.2608Z" fill="#2F2E41"/>
<path d="M282.974 339.702H13.8047C6.19266 339.702 0 333.52 0 325.923V183.21C0 175.613 6.19266 169.432 13.8047 169.432H282.974C290.586 169.432 296.779 175.613 296.779 183.21V325.923C296.779 333.52 290.586 339.702 282.974 339.702Z" fill="white"/>
<path d="M282.974 339.702H13.8047C6.19266 339.702 0 333.52 0 325.923V183.21C0 175.613 6.19266 169.432 13.8047 169.432H282.974C290.586 169.432 296.779 175.613 296.779 183.21V325.923C296.779 333.52 290.586 339.702 282.974 339.702ZM13.8047 171.733C7.46406 171.733 2.30529 176.882 2.30529 183.21V325.923C2.30529 332.252 7.46406 337.401 13.8047 337.401H282.974C289.315 337.401 294.473 332.252 294.473 325.923V183.21C294.473 176.882 289.315 171.733 282.974 171.733H13.8047Z" fill="#3F3D56"/>
<path d="M262.199 186.689C264.109 186.689 265.657 185.144 265.657 183.238C265.657 181.331 264.109 179.786 262.199 179.786C260.289 179.786 258.741 181.331 258.741 183.238C258.741 185.144 260.289 186.689 262.199 186.689Z" fill="#3F3D56"/>
<path d="M271.42 186.689C273.33 186.689 274.878 185.144 274.878 183.238C274.878 181.331 273.33 179.786 271.42 179.786C269.511 179.786 267.962 181.331 267.962 183.238C267.962 185.144 269.511 186.689 271.42 186.689Z" fill="#3F3D56"/>
<path d="M280.642 186.689C282.551 186.689 284.099 185.144 284.099 183.238C284.099 181.331 282.551 179.786 280.642 179.786C278.732 179.786 277.184 181.331 277.184 183.238C277.184 185.144 278.732 186.689 280.642 186.689Z" fill="#3F3D56"/>
<path d="M19.5949 239.035C18.6415 239.035 17.866 239.809 17.866 240.761C17.866 241.225 18.0455 241.654 18.3714 241.971C18.7001 242.307 19.1306 242.487 19.5949 242.487H278.336C279.29 242.487 280.065 241.712 280.065 240.761C280.065 240.297 279.886 239.868 279.56 239.551C279.231 239.215 278.8 239.035 278.336 239.035H19.5949Z" fill="#E6E6E6"/>
<path d="M246.062 238.46V243.062H19.5948C18.9609 243.062 18.3846 242.809 17.9696 242.383C17.5431 241.969 17.2896 241.394 17.2896 240.761C17.2896 239.495 18.327 238.46 19.5948 238.46H246.062Z" fill="#2D2D8D"/>
<path d="M275.455 229.832H252.402C249.859 229.832 247.791 227.768 247.791 225.23C247.791 222.692 249.859 220.628 252.402 220.628H275.455C277.997 220.628 280.065 222.692 280.065 225.23C280.065 227.768 277.997 229.832 275.455 229.832Z" fill="#E6E6E6"/>
<path d="M124.458 205.672H21.324C18.7817 205.672 16.7134 203.608 16.7134 201.07C16.7134 198.532 18.7817 196.468 21.324 196.468H124.458C127 196.468 129.069 198.532 129.069 201.07C129.069 203.608 127 205.672 124.458 205.672Z" fill="#E6E6E6"/>
<path d="M19.5949 290.808C18.6415 290.808 17.866 291.582 17.866 292.533C17.866 292.997 18.0455 293.427 18.3714 293.743C18.7001 294.079 19.1306 294.259 19.5949 294.259H278.336C279.29 294.259 280.065 293.485 280.065 292.533C280.065 292.069 279.886 291.64 279.56 291.323C279.231 290.987 278.8 290.808 278.336 290.808H19.5949Z" fill="#E6E6E6"/>
<path d="M157.308 290.232V294.834H19.5948C18.9609 294.834 18.3846 294.581 17.9696 294.156C17.5431 293.741 17.2896 293.166 17.2896 292.533C17.2896 291.268 18.327 290.232 19.5948 290.232H157.308Z" fill="#2D2D8D"/>
<path d="M275.455 281.603H252.402C249.859 281.603 247.791 279.539 247.791 277.001C247.791 274.463 249.859 272.399 252.402 272.399H275.455C277.997 272.399 280.065 274.463 280.065 277.001C280.065 279.539 277.997 281.603 275.455 281.603Z" fill="#E6E6E6"/>
<path d="M315.812 87.3616C335.75 87.3616 351.912 71.5695 351.912 52.089C351.912 32.6085 335.75 16.8164 315.812 16.8164C295.875 16.8164 279.712 32.6085 279.712 52.089C279.712 71.5695 295.875 87.3616 315.812 87.3616Z" fill="#2D2D8D"/>
<path d="M328.064 34.2982C323.258 43.0329 318.452 51.7677 313.646 60.5025C310.583 55.1007 312.07 57.3976 309 52C307.939 50.1359 304.937 52.1312 306 54C309.559 60.257 308.667 58.5079 312.226 64.765C312.835 65.8348 314.506 65.8596 315.108 64.765C320.387 55.1698 325.667 45.5746 330.946 35.9795C331.981 34.0993 329.1 32.4166 328.064 34.2982Z" fill="white"/>
<path d="M365.646 145.064L329.679 127.891C329.679 127.891 328.235 116.397 321.49 112.297C320.343 109.566 319.024 106.567 317.825 104.19C314.862 98.3118 319.307 87.2197 315.603 87.2197C311.898 87.2197 306.423 98.8852 306.712 102.009C306.935 104.407 308.921 108.594 309.331 112.259C304.814 113.959 301.17 116.874 298.774 119.194C296.7 121.203 295.93 124.199 296.74 126.967C299.088 134.988 304.958 151.554 313.38 151.554C324.493 151.554 327.457 149.335 327.457 149.335C327.457 149.335 350.424 178.175 367.463 180.393C384.503 182.612 365.646 145.064 365.646 145.064Z" fill="#FFB6B6"/>
</g>
<defs>
<clipPath id="clip0_105_2299">
<rect width="379" height="433" fill="white"/>
</clipPath>
</defs>
</svg>
