<svg version="1.1" id="Layer_1" xmlns="http://www.w3.org/2000/svg" xmlns:xlink="http://www.w3.org/1999/xlink" x="0px" y="0px"
	 width="100%" viewBox="0 0 274 78" enable-background="new 0 0 274 78" xml:space="preserve">
<path fill="#FDFDFE" opacity="1.000000" stroke="none" 
	d="
M181.000000,79.000000 
	C120.666687,79.000000 60.833378,79.000000 1.000048,79.000000 
	C1.000032,53.000031 1.000032,27.000061 1.000016,1.000069 
	C92.333275,1.000046 183.666550,1.000046 274.999878,1.000023 
	C274.999908,26.999926 274.999908,52.999851 274.999939,78.999893 
	C243.833328,79.000000 212.666672,79.000000 181.000000,79.000000 
M92.619194,46.742783 
	C92.436996,45.930748 92.250969,45.119545 92.073174,44.306549 
	C89.733780,33.609291 80.934174,26.044132 69.880325,25.228413 
	C60.132492,24.509071 49.403156,31.698973 46.176025,41.113045 
	C42.700886,51.250599 46.260616,62.214912 55.081306,68.542183 
	C63.261375,74.409935 76.353043,74.368088 82.978027,68.092209 
	C84.407448,66.738113 85.415001,64.087303 85.234482,62.163509 
	C85.098282,60.711891 82.884308,58.577095 81.363823,58.359013 
	C79.522903,58.094967 77.318756,59.302578 75.480194,60.269585 
	C68.161423,64.118950 59.744453,61.254940 57.830460,53.972668 
	C67.194405,53.972668 76.513374,53.917332 85.831192,53.996651 
	C90.307465,54.034752 92.774040,52.179253 92.619194,46.742783 
M156.716034,69.107353 
	C157.609314,69.643440 158.558273,70.105499 159.386215,70.728439 
	C162.967987,73.423370 168.116196,72.104271 168.223251,67.840210 
	C168.446503,58.949284 169.131805,49.630009 166.886887,41.218063 
	C163.337326,27.917534 148.269119,21.837517 135.965851,27.094427 
	C123.305885,32.503746 117.516113,46.929150 123.297142,58.964504 
	C129.637146,72.163574 145.365845,76.597099 156.716034,69.107353 
M212.135101,68.728386 
	C213.010452,67.963455 213.976578,67.279366 214.743668,66.418015 
	C216.816513,64.090492 217.732101,61.452759 215.520279,58.798046 
	C213.242767,56.064484 210.429840,55.997452 207.543869,57.981880 
	C206.586685,58.640049 205.695587,59.402248 204.705017,60.002625 
	C199.895981,62.917301 193.963211,62.404701 189.890427,58.765945 
	C184.592743,54.032829 183.816757,46.768990 188.029633,41.347820 
	C192.517349,35.573036 199.234482,34.597240 205.737671,38.775406 
	C210.894318,42.088440 213.897003,42.051174 215.997391,38.648083 
	C217.912750,35.544792 216.287216,32.009548 211.529770,28.931797 
	C203.253845,23.577826 191.417740,24.238695 183.490875,30.497358 
	C173.785843,38.159973 171.570694,51.919880 178.379974,62.244865 
	C185.429031,72.933456 199.211868,75.789825 212.135101,68.728386 
M101.494850,22.226130 
	C101.363609,24.989609 101.232361,27.753090 101.097298,30.596991 
	C97.049362,30.694775 93.694138,31.704546 93.553276,35.884266 
	C93.393784,40.616756 97.205978,41.624447 101.346832,42.125469 
	C101.346832,49.757774 101.398605,57.225037 101.325706,64.691078 
	C101.287376,68.617310 102.245041,71.987938 106.792923,72.045792 
	C111.380264,72.104141 112.340820,68.808640 112.279633,64.823463 
	C112.163147,57.236691 112.245850,49.646862 112.245850,41.950783 
	C116.694054,41.656139 121.053596,41.613510 121.177513,36.289570 
	C121.312317,30.497961 116.387436,31.004267 112.704475,30.488968 
	C111.639984,22.239639 112.430840,20.093504 117.303223,19.099855 
	C121.134926,18.318438 123.529259,16.550900 122.893188,12.397954 
	C122.370148,8.983013 118.796288,7.261055 114.549118,8.314213 
	C107.620834,10.032202 103.254967,14.381799 101.494850,22.226130 
M250.192230,48.430496 
	C250.191223,36.964142 250.201218,25.497766 250.182709,14.031438 
	C250.176941,10.463872 248.271698,8.270760 244.799881,8.132096 
	C241.430359,7.997518 239.457336,10.301587 239.442795,13.475062 
	C239.374252,28.424166 239.180389,43.387070 239.737106,58.318737 
	C240.025558,66.056084 246.135162,71.358841 253.735748,72.069427 
	C257.080017,72.382080 260.339691,72.140869 260.937531,67.916847 
	C261.506683,63.895496 259.544800,61.572941 255.440079,61.273655 
	C251.412186,60.979977 250.064316,58.575077 250.179245,54.885101 
	C250.236130,53.058865 250.191116,51.229462 250.192230,48.430496 
M41.634155,36.467754 
	C44.538116,35.204861 46.327408,33.234074 45.353012,29.870249 
	C44.388924,26.542021 41.803261,25.965591 38.681068,26.006153 
	C26.925728,26.158876 15.776587,36.519081 15.159487,48.323513 
	C14.847070,54.299683 15.063004,60.303707 15.049112,66.295166 
	C15.040687,69.929146 16.937984,72.027992 20.487799,72.053749 
	C24.141642,72.080269 25.825357,69.726707 25.878183,66.227692 
	C25.943501,61.901218 25.885420,57.572979 25.893957,53.245533 
	C25.915041,42.559723 30.306234,37.720928 41.634155,36.467754 
M233.381821,31.876160 
	C233.278381,28.108154 231.554642,25.750467 227.579651,26.130161 
	C223.584930,26.511738 222.713089,29.376875 222.740234,32.938351 
	C222.822479,43.730927 222.840561,54.525246 222.732239,65.317368 
	C222.693054,69.221001 223.934235,72.043900 228.149475,72.047348 
	C232.520126,72.050926 233.413391,68.921837 233.392197,65.178268 
	C233.331070,54.385414 233.372299,43.591984 233.381821,31.876160 
M229.167908,9.126996 
	C223.525192,9.540755 220.339050,13.254794 222.737595,17.126844 
	C223.825974,18.883839 226.622696,20.691977 228.493301,20.545589 
	C230.395386,20.396740 232.931625,18.213457 233.724976,16.310274 
	C235.056320,13.116596 232.945496,10.712279 229.167908,9.126996 
M148.718643,11.914446 
	C147.096619,13.568269 145.086288,15.005108 143.996109,16.956112 
	C143.326523,18.154438 143.468658,20.734884 144.337570,21.605103 
	C145.219376,22.488249 147.711227,22.615629 149.012009,22.017395 
	C150.716614,21.233435 152.219635,19.596575 153.293152,17.983101 
	C154.187622,16.638718 155.180161,13.827052 154.652283,13.369586 
	C153.317871,12.213194 151.151657,12.016637 148.718643,11.914446 
z"/>
<path fill="#AA33FF" opacity="1.000000" stroke="none" 
	d="
M92.675568,47.133053 
	C92.774040,52.179253 90.307465,54.034752 85.831192,53.996651 
	C76.513374,53.917332 67.194405,53.972668 57.830460,53.972668 
	C59.744453,61.254940 68.161423,64.118950 75.480194,60.269585 
	C77.318756,59.302578 79.522903,58.094967 81.363823,58.359013 
	C82.884308,58.577095 85.098282,60.711891 85.234482,62.163509 
	C85.415001,64.087303 84.407448,66.738113 82.978027,68.092209 
	C76.353043,74.368088 63.261375,74.409935 55.081306,68.542183 
	C46.260616,62.214912 42.700886,51.250599 46.176025,41.113045 
	C49.403156,31.698973 60.132492,24.509071 69.880325,25.228413 
	C80.934174,26.044132 89.733780,33.609291 92.073174,44.306549 
	C92.250969,45.119545 92.436996,45.930748 92.675568,47.133053 
M66.561386,44.925964 
	C71.297745,44.925964 76.034111,44.925964 80.969856,44.925964 
	C78.796059,38.772419 74.729866,36.011105 68.719170,36.123955 
	C62.982212,36.231670 59.063900,39.075703 57.154015,44.926025 
	C60.064999,44.926025 62.827999,44.926025 66.561386,44.925964 
z"/>
<path fill="#34349D" opacity="1.000000" stroke="none" 
	d="
M156.378601,69.302605 
	C145.365845,76.597099 129.637146,72.163574 123.297142,58.964504 
	C117.516113,46.929150 123.305885,32.503746 135.965851,27.094427 
	C148.269119,21.837517 163.337326,27.917534 166.886887,41.218063 
	C169.131805,49.630009 168.446503,58.949284 168.223251,67.840210 
	C168.116196,72.104271 162.967987,73.423370 159.386215,70.728439 
	C158.558273,70.105499 157.609314,69.643440 156.378601,69.302605 
M134.670486,41.314178 
	C131.166901,46.146149 130.902603,51.169685 134.208771,56.122116 
	C137.251740,60.680317 141.708847,62.653370 147.131622,61.698044 
	C152.798401,60.699734 156.126358,57.036892 157.493439,51.542633 
	C158.735535,46.550667 156.068619,40.698284 151.369644,37.964005 
	C145.915070,34.790051 140.749054,35.660851 134.670486,41.314178 
z"/>
<path fill="#34349D" opacity="1.000000" stroke="none" 
	d="
M211.815430,68.918106 
	C199.211868,75.789825 185.429031,72.933456 178.379974,62.244865 
	C171.570694,51.919880 173.785843,38.159973 183.490875,30.497358 
	C191.417740,24.238695 203.253845,23.577826 211.529770,28.931797 
	C216.287216,32.009548 217.912750,35.544792 215.997391,38.648083 
	C213.897003,42.051174 210.894318,42.088440 205.737671,38.775406 
	C199.234482,34.597240 192.517349,35.573036 188.029633,41.347820 
	C183.816757,46.768990 184.592743,54.032829 189.890427,58.765945 
	C193.963211,62.404701 199.895981,62.917301 204.705017,60.002625 
	C205.695587,59.402248 206.586685,58.640049 207.543869,57.981880 
	C210.429840,55.997452 213.242767,56.064484 215.520279,58.798046 
	C217.732101,61.452759 216.816513,64.090492 214.743668,66.418015 
	C213.976578,67.279366 213.010452,67.963455 211.815430,68.918106 
z"/>
<path fill="#35359D" opacity="1.000000" stroke="none" 
	d="
M101.589928,21.822086 
	C103.254967,14.381799 107.620834,10.032202 114.549118,8.314213 
	C118.796288,7.261055 122.370148,8.983013 122.893188,12.397954 
	C123.529259,16.550900 121.134926,18.318438 117.303223,19.099855 
	C112.430840,20.093504 111.639984,22.239639 112.704475,30.488968 
	C116.387436,31.004267 121.312317,30.497961 121.177513,36.289570 
	C121.053596,41.613510 116.694054,41.656139 112.245850,41.950783 
	C112.245850,49.646862 112.163147,57.236691 112.279633,64.823463 
	C112.340820,68.808640 111.380264,72.104141 106.792923,72.045792 
	C102.245041,71.987938 101.287376,68.617310 101.325706,64.691078 
	C101.398605,57.225037 101.346832,49.757774 101.346832,42.125469 
	C97.205978,41.624447 93.393784,40.616756 93.553276,35.884266 
	C93.694138,31.704546 97.049362,30.694775 101.097298,30.596991 
	C101.232361,27.753090 101.363609,24.989609 101.589928,21.822086 
z"/>
<path fill="#36369E" opacity="1.000000" stroke="none" 
	d="
M250.192215,48.915993 
	C250.191116,51.229462 250.236130,53.058865 250.179245,54.885101 
	C250.064316,58.575077 251.412186,60.979977 255.440079,61.273655 
	C259.544800,61.572941 261.506683,63.895496 260.937531,67.916847 
	C260.339691,72.140869 257.080017,72.382080 253.735748,72.069427 
	C246.135162,71.358841 240.025558,66.056084 239.737106,58.318737 
	C239.180389,43.387070 239.374252,28.424166 239.442795,13.475062 
	C239.457336,10.301587 241.430359,7.997518 244.799881,8.132096 
	C248.271698,8.270760 250.176941,10.463872 250.182709,14.031438 
	C250.201218,25.497766 250.191223,36.964142 250.192215,48.915993 
z"/>
<path fill="#AB35FF" opacity="1.000000" stroke="none" 
	d="
M41.258537,36.591660 
	C30.306234,37.720928 25.915041,42.559723 25.893957,53.245533 
	C25.885420,57.572979 25.943501,61.901218 25.878183,66.227692 
	C25.825357,69.726707 24.141642,72.080269 20.487799,72.053749 
	C16.937984,72.027992 15.040687,69.929146 15.049112,66.295166 
	C15.063004,60.303707 14.847070,54.299683 15.159487,48.323513 
	C15.776587,36.519081 26.925728,26.158876 38.681068,26.006153 
	C41.803261,25.965591 44.388924,26.542021 45.353012,29.870249 
	C46.327408,33.234074 44.538116,35.204861 41.258537,36.591660 
z"/>
<path fill="#30309B" opacity="1.000000" stroke="none" 
	d="
M233.377563,32.337471 
	C233.372299,43.591984 233.331070,54.385414 233.392197,65.178268 
	C233.413391,68.921837 232.520126,72.050926 228.149475,72.047348 
	C223.934235,72.043900 222.693054,69.221001 222.732239,65.317368 
	C222.840561,54.525246 222.822479,43.730927 222.740234,32.938351 
	C222.713089,29.376875 223.584930,26.511738 227.579651,26.130161 
	C231.554642,25.750467 233.278381,28.108154 233.377563,32.337471 
z"/>
<path fill="#38389F" opacity="1.000000" stroke="none" 
	d="
M229.554977,9.205036 
	C232.945496,10.712279 235.056320,13.116596 233.724976,16.310274 
	C232.931625,18.213457 230.395386,20.396740 228.493301,20.545589 
	C226.622696,20.691977 223.825974,18.883839 222.737595,17.126844 
	C220.339050,13.254794 223.525192,9.540755 229.554977,9.205036 
z"/>
<path fill="#37379E" opacity="1.000000" stroke="none" 
	d="
M149.018677,11.674996 
	C151.151657,12.016637 153.317871,12.213194 154.652283,13.369586 
	C155.180161,13.827052 154.187622,16.638718 153.293152,17.983101 
	C152.219635,19.596575 150.716614,21.233435 149.012009,22.017395 
	C147.711227,22.615629 145.219376,22.488249 144.337570,21.605103 
	C143.468658,20.734884 143.326523,18.154438 143.996109,16.956112 
	C145.086288,15.005108 147.096619,13.568269 149.018677,11.674996 
z"/>
<path fill="#FBF6FF" opacity="1.000000" stroke="none" 
	d="
M66.076187,44.925995 
	C62.827999,44.926025 60.064999,44.926025 57.154015,44.926025 
	C59.063900,39.075703 62.982212,36.231670 68.719170,36.123955 
	C74.729866,36.011105 78.796059,38.772419 80.969856,44.925964 
	C76.034111,44.925964 71.297745,44.925964 66.076187,44.925995 
z"/>
<path fill="#FAFAFC" opacity="1.000000" stroke="none" 
	d="
M134.892014,41.009186 
	C140.749054,35.660851 145.915070,34.790051 151.369644,37.964005 
	C156.068619,40.698284 158.735535,46.550667 157.493439,51.542633 
	C156.126358,57.036892 152.798401,60.699734 147.131622,61.698044 
	C141.708847,62.653370 137.251740,60.680317 134.208771,56.122116 
	C130.902603,51.169685 131.166901,46.146149 134.892014,41.009186 
z"/>
</svg>